<svg width="26" height="19" viewBox="0 0 26 19" fill="none" xmlns="http://www.w3.org/2000/svg">
<path d="M8.38672 18H5V4.94531L0.957031 6.19922V3.44531L8.02344 0.914062H8.38672V18ZM25.4258 10.9453C25.4258 13.3047 24.9375 15.1094 23.9609 16.3594C22.9844 17.6094 21.5547 18.2344 19.6719 18.2344C17.8125 18.2344 16.3906 17.6211 15.4062 16.3945C14.4219 15.168 13.918 13.4102 13.8945 11.1211V7.98047C13.8945 5.59766 14.3867 3.78906 15.3711 2.55469C16.3633 1.32031 17.7891 0.703125 19.6484 0.703125C21.5078 0.703125 22.9297 1.31641 23.9141 2.54297C24.8984 3.76172 25.4023 5.51562 25.4258 7.80469V10.9453ZM22.0391 7.5C22.0391 6.08594 21.8438 5.05859 21.4531 4.41797C21.0703 3.76953 20.4688 3.44531 19.6484 3.44531C18.8516 3.44531 18.2617 3.75391 17.8789 4.37109C17.5039 4.98047 17.3047 5.9375 17.2812 7.24219V11.3906C17.2812 12.7812 17.4688 13.8164 17.8438 14.4961C18.2266 15.168 18.8359 15.5039 19.6719 15.5039C20.5 15.5039 21.0977 15.1797 21.4648 14.5312C21.832 13.8828 22.0234 12.8906 22.0391 11.5547V7.5Z" fill="white"/>
</svg>
