<svg width="27" height="19" viewBox="0 0 27 19" fill="none" xmlns="http://www.w3.org/2000/svg">
<path d="M12.8555 18H1.16016V15.6797L6.67969 9.79688C7.4375 8.96875 7.99609 8.24609 8.35547 7.62891C8.72266 7.01172 8.90625 6.42578 8.90625 5.87109C8.90625 5.11328 8.71484 4.51953 8.33203 4.08984C7.94922 3.65234 7.40234 3.43359 6.69141 3.43359C5.92578 3.43359 5.32031 3.69922 4.875 4.23047C4.4375 4.75391 4.21875 5.44531 4.21875 6.30469H0.820312C0.820312 5.26562 1.06641 4.31641 1.55859 3.45703C2.05859 2.59766 2.76172 1.92578 3.66797 1.44141C4.57422 0.949219 5.60156 0.703125 6.75 0.703125C8.50781 0.703125 9.87109 1.125 10.8398 1.96875C11.8164 2.8125 12.3047 4.00391 12.3047 5.54297C12.3047 6.38672 12.0859 7.24609 11.6484 8.12109C11.2109 8.99609 10.4609 10.0156 9.39844 11.1797L5.51953 15.2695H12.8555V18ZM15.4453 9.60938L16.4297 0.9375H25.9922V3.76172H19.207L18.7852 7.42969C19.5898 7 20.4453 6.78516 21.3516 6.78516C22.9766 6.78516 24.25 7.28906 25.1719 8.29688C26.0938 9.30469 26.5547 10.7148 26.5547 12.5273C26.5547 13.6289 26.3203 14.6172 25.8516 15.4922C25.3906 16.3594 24.7266 17.0352 23.8594 17.5195C22.9922 17.9961 21.9688 18.2344 20.7891 18.2344C19.7578 18.2344 18.8008 18.0273 17.918 17.6133C17.0352 17.1914 16.3359 16.6016 15.8203 15.8438C15.3125 15.0859 15.043 14.2227 15.0117 13.2539H18.3633C18.4336 13.9648 18.6797 14.5195 19.1016 14.918C19.5312 15.3086 20.0898 15.5039 20.7773 15.5039C21.543 15.5039 22.1328 15.2305 22.5469 14.6836C22.9609 14.1289 23.168 13.3477 23.168 12.3398C23.168 11.3711 22.9297 10.6289 22.4531 10.1133C21.9766 9.59766 21.3008 9.33984 20.4258 9.33984C19.6211 9.33984 18.9688 9.55078 18.4688 9.97266L18.1406 10.2773L15.4453 9.60938Z" fill="white"/>
</svg>
