<svg width="240" height="51" viewBox="0 0 240 51" fill="none" xmlns="http://www.w3.org/2000/svg">
<path d="M179.906 47H172.258V45.6953L176.047 41.5625C176.594 40.9531 176.982 40.4453 177.211 40.0391C177.445 39.6276 177.562 39.2161 177.562 38.8047C177.562 38.263 177.409 37.8255 177.102 37.4922C176.799 37.1589 176.391 36.9922 175.875 36.9922C175.26 36.9922 174.784 37.1797 174.445 37.5547C174.107 37.9297 173.938 38.4427 173.938 39.0938H172.039C172.039 38.401 172.195 37.7786 172.508 37.2266C172.826 36.6693 173.276 36.237 173.859 35.9297C174.448 35.6224 175.125 35.4688 175.891 35.4688C176.995 35.4688 177.865 35.7474 178.5 36.3047C179.141 36.8568 179.461 37.6224 179.461 38.6016C179.461 39.1693 179.299 39.7656 178.977 40.3906C178.659 41.0104 178.135 41.7161 177.406 42.5078L174.625 45.4844H179.906V47ZM181.859 41.3594L182.477 35.625H188.586V37.2656H184.055L183.742 39.9844C184.268 39.6823 184.862 39.5312 185.523 39.5312C186.607 39.5312 187.448 39.8776 188.047 40.5703C188.651 41.263 188.953 42.1953 188.953 43.3672C188.953 44.5234 188.62 45.4453 187.953 46.1328C187.286 46.8151 186.372 47.1562 185.211 47.1562C184.169 47.1562 183.305 46.862 182.617 46.2734C181.935 45.6797 181.565 44.8984 181.508 43.9297H183.344C183.417 44.4818 183.615 44.9062 183.938 45.2031C184.26 45.4948 184.682 45.6406 185.203 45.6406C185.786 45.6406 186.24 45.4323 186.562 45.0156C186.891 44.599 187.055 44.0312 187.055 43.3125C187.055 42.6198 186.875 42.0729 186.516 41.6719C186.156 41.2656 185.661 41.0625 185.031 41.0625C184.688 41.0625 184.396 41.1094 184.156 41.2031C183.917 41.2917 183.656 41.4688 183.375 41.7344L181.859 41.3594Z" fill="black"/>
<path d="M116.398 47H114.508V37.8672L111.719 38.8203V37.2188L116.156 35.5859H116.398V47ZM127.766 42.2109C127.766 43.8464 127.458 45.0807 126.844 45.9141C126.234 46.7422 125.305 47.1562 124.055 47.1562C122.826 47.1562 121.898 46.7526 121.273 45.9453C120.654 45.1328 120.336 43.9323 120.32 42.3438V40.375C120.32 38.7396 120.625 37.513 121.234 36.6953C121.849 35.8776 122.784 35.4688 124.039 35.4688C125.284 35.4688 126.211 35.8672 126.82 36.6641C127.435 37.4609 127.75 38.6536 127.766 40.2422V42.2109ZM125.867 40.0859C125.867 39.0182 125.721 38.237 125.43 37.7422C125.138 37.2422 124.674 36.9922 124.039 36.9922C123.419 36.9922 122.964 37.2292 122.672 37.7031C122.38 38.1719 122.227 38.9062 122.211 39.9062V42.4844C122.211 43.5469 122.359 44.3385 122.656 44.8594C122.953 45.3802 123.419 45.6406 124.055 45.6406C124.664 45.6406 125.115 45.401 125.406 44.9219C125.698 44.4375 125.852 43.6823 125.867 42.6562V40.0859Z" fill="black"/>
<path d="M61.4453 47H59.5547V37.8672L56.7656 38.8203V37.2188L61.2031 35.5859H61.4453V47Z" fill="black"/>
<line opacity="0.2" x1="179.5" y1="24" x2="179.5" y2="2.18557e-08" stroke="#BDBDBD"/>
<line opacity="0.2" x1="119.5" y1="24" x2="119.5" y2="2.18557e-08" stroke="#BDBDBD"/>
<line opacity="0.2" x1="60.5" y1="24" x2="60.5" y2="2.18557e-08" stroke="#BDBDBD"/>
<path d="M232 20C236.418 20 240 16.4183 240 12C240 7.58172 236.418 4 232 4L180 4V20L232 20Z" fill="#FF0034"/>
<rect width="16" height="60" transform="matrix(0 -1 -1 0 180 20)" fill="#FF9600"/>
<rect width="16" height="60" transform="matrix(0 -1 -1 0 120 20)" fill="#FFC900"/>
<path d="M60 20V4L8 4C3.58172 4 0 7.58172 0 12C0 16.4183 3.58172 20 8 20L60 20Z" fill="#00D474"/>
</svg>
