<svg width="87" height="16" viewBox="0 0 87 16" fill="none" xmlns="http://www.w3.org/2000/svg">
<path d="M2.52539 9.43359V15H0.650391V0.78125H5.89453C7.45052 0.78125 8.66797 1.17839 9.54688 1.97266C10.4323 2.76693 10.875 3.81836 10.875 5.12695C10.875 6.50716 10.4421 7.57161 9.57617 8.32031C8.7168 9.0625 7.48307 9.43359 5.875 9.43359H2.52539ZM2.52539 7.90039H5.89453C6.89714 7.90039 7.66536 7.66602 8.19922 7.19727C8.73307 6.72201 9 6.03841 9 5.14648C9 4.30013 8.73307 3.62305 8.19922 3.11523C7.66536 2.60742 6.93294 2.34375 6.00195 2.32422H2.52539V7.90039ZM21.3047 8.42773H15.1426V13.4668H22.3008V15H13.2676V0.78125H22.2031V2.32422H15.1426V6.89453H21.3047V8.42773ZM29.8496 9.24805H26.5098V15H24.625V0.78125H29.332C30.9336 0.78125 32.1641 1.14583 33.0234 1.875C33.8893 2.60417 34.3223 3.66536 34.3223 5.05859C34.3223 5.94401 34.0814 6.71549 33.5996 7.37305C33.1243 8.0306 32.4603 8.52214 31.6074 8.84766L34.9473 14.8828V15H32.9355L29.8496 9.24805ZM26.5098 7.71484H29.3906C30.3216 7.71484 31.0605 7.47396 31.6074 6.99219C32.1608 6.51042 32.4375 5.86589 32.4375 5.05859C32.4375 4.17969 32.1738 3.50586 31.6465 3.03711C31.1257 2.56836 30.3704 2.33073 29.3809 2.32422H26.5098V7.71484ZM47.3887 15H45.5723V2.95898L41.9297 4.29688V2.65625L47.1055 0.712891H47.3887V15ZM61.5977 8.93555C61.5977 11.0514 61.2363 12.6237 60.5137 13.6523C59.791 14.681 58.6615 15.1953 57.125 15.1953C55.6081 15.1953 54.485 14.694 53.7559 13.6914C53.0267 12.6823 52.6491 11.1784 52.623 9.17969V6.76758C52.623 4.67773 52.9844 3.125 53.707 2.10938C54.4297 1.09375 55.5625 0.585938 57.1055 0.585938C58.6354 0.585938 59.7617 1.07747 60.4844 2.06055C61.207 3.03711 61.5781 4.54753 61.5977 6.5918V8.93555ZM59.791 6.46484C59.791 4.9349 59.5762 3.82161 59.1465 3.125C58.7168 2.42188 58.0365 2.07031 57.1055 2.07031C56.181 2.07031 55.5072 2.41862 55.084 3.11523C54.6608 3.81185 54.4427 4.88281 54.4297 6.32812V9.21875C54.4297 10.7552 54.651 11.8913 55.0938 12.627C55.543 13.3561 56.2201 13.7207 57.125 13.7207C58.0169 13.7207 58.6777 13.3757 59.1074 12.6855C59.5436 11.9954 59.7715 10.9082 59.791 9.42383V6.46484ZM72.8281 8.93555C72.8281 11.0514 72.4668 12.6237 71.7441 13.6523C71.0215 14.681 69.8919 15.1953 68.3555 15.1953C66.8385 15.1953 65.7155 14.694 64.9863 13.6914C64.2572 12.6823 63.8796 11.1784 63.8535 9.17969V6.76758C63.8535 4.67773 64.2148 3.125 64.9375 2.10938C65.6602 1.09375 66.793 0.585938 68.3359 0.585938C69.8659 0.585938 70.9922 1.07747 71.7148 2.06055C72.4375 3.03711 72.8086 4.54753 72.8281 6.5918V8.93555ZM71.0215 6.46484C71.0215 4.9349 70.8066 3.82161 70.377 3.125C69.9473 2.42188 69.2669 2.07031 68.3359 2.07031C67.4115 2.07031 66.7376 2.41862 66.3145 3.11523C65.8913 3.81185 65.6732 4.88281 65.6602 6.32812V9.21875C65.6602 10.7552 65.8815 11.8913 66.3242 12.627C66.7734 13.3561 67.4505 13.7207 68.3555 13.7207C69.2474 13.7207 69.9082 13.3757 70.3379 12.6855C70.7741 11.9954 71.002 10.9082 71.0215 9.42383V6.46484ZM79.2246 8.38867L77.4863 10.1953V15H75.6113V0.78125H77.4863V7.8125L83.8047 0.78125H86.0703L80.4746 7.06055L86.5098 15H84.2637L79.2246 8.38867Z" fill="#E0E0E0"/>
</svg>
