<svg width="261" height="32" viewBox="0 0 261 32" fill="none" xmlns="http://www.w3.org/2000/svg">
<path d="M11.7674 0.753765C17.4623 0.753765 21.4762 4.31677 22.0594 9.5248H16.9134C16.3302 6.8523 14.3748 5.10485 11.4929 5.10485C7.58183 5.10485 5.24906 8.32553 5.24906 12.9508C5.24906 17.5418 7.58183 20.7968 11.4929 20.7968C14.3748 20.7968 16.3302 19.0494 16.9134 16.3771H22.0594C21.4762 21.5846 17.4623 25.1479 11.7674 25.1479C4.49429 25.1479 0 20.317 0 12.9508C0 5.58466 4.49429 0.753765 11.7674 0.753765Z" fill="white"/>
<path d="M37.1548 16.1369C37.1548 13.1564 35.474 11.0664 32.7636 11.0664C30.0534 11.0664 28.4067 13.1564 28.4067 16.1369C28.4067 19.1177 30.0534 21.208 32.7636 21.208C35.474 21.208 37.1548 19.1177 37.1548 16.1369ZM23.4663 16.1369C23.4663 10.7238 27.1374 7.12651 32.7636 7.12651C38.39 7.12651 42.0608 10.7238 42.0608 16.1369C42.0608 21.5846 38.39 25.1479 32.7636 25.1479C27.1374 25.1479 23.4663 21.5503 23.4663 16.1369Z" fill="white"/>
<path d="M46.1437 7.33189L50.3978 20.0085L54.5832 7.33189H59.6607L53.3138 24.9421H47.31L40.9634 7.33189H46.1437Z" fill="white"/>
<path d="M65.4244 24.942H60.5871V7.33186H65.4244V24.942ZM65.8018 2.70657C65.8018 4.28248 64.6012 5.44768 63.0229 5.44768C61.4106 5.44768 60.2097 4.28248 60.2097 2.70657C60.2097 1.13066 61.4106 5.72205e-06 63.0229 5.72205e-06C64.6012 5.72205e-06 65.8018 1.13066 65.8018 2.70657Z" fill="white"/>
<path d="M80.2796 16.1712C80.2796 13.1563 78.6326 11.0666 75.9912 11.0666C73.3495 11.0666 71.6684 13.122 71.6684 16.1369C71.6684 19.1522 73.3495 21.2079 75.9912 21.2079C78.6326 21.2079 80.2796 19.1522 80.2796 16.1712ZM85.0482 0.959282V24.9422H80.8283L80.3481 22.5099C79.1818 24.0172 77.4664 25.1478 74.9277 25.1478C70.1932 25.1824 66.7283 21.6877 66.7283 16.1028C66.7283 10.6554 70.1932 7.12643 74.8934 7.12643C77.329 7.12643 79.0787 8.0858 80.2109 9.52472V0.959282H85.0482Z" fill="white"/>
<path d="M101.756 15.5548L98.5654 6.4412L95.4094 15.5548H101.756ZM95.6494 0.959461H101.824L110.539 24.9421H105.015L103.163 19.7003H94.0368L92.1842 24.9421H86.8669L95.6494 0.959461Z" fill="#00D474"/>
<path d="M118.567 25.1479C113.01 25.1479 109.476 21.5504 109.476 16.137C109.476 10.6553 113.044 7.12657 118.602 7.12657C123.37 7.12657 126.424 9.73021 127.11 13.9103H122.101C121.689 12.1969 120.42 11.0665 118.567 11.0665C116.029 11.0665 114.416 13.1219 114.416 16.137C114.416 19.1178 116.029 21.2078 118.567 21.2078C120.489 21.2078 121.758 20.0769 122.135 18.2613H127.11C126.458 22.5098 123.37 25.1479 118.567 25.1479Z" fill="#00D474"/>
<path d="M130.85 11.4089H127.933V7.3318H130.85V2.39849H135.687V7.3318H139.701V11.4089H135.687V19.1179C135.687 20.3515 136.167 20.8651 137.402 20.8651H139.906V24.942H135.893C132.53 24.942 130.85 23.2634 130.85 19.906V11.4089Z" fill="#00D474"/>
<path d="M141.622 0.959339H146.287L156.477 16.0686V0.959339H161.554V24.942H156.854L146.665 9.83305V24.942H141.622V0.959339Z" fill="#00D474"/>
<path d="M176.89 16.1369C176.89 13.1564 175.209 11.0664 172.499 11.0664C169.788 11.0664 168.142 13.1564 168.142 16.1369C168.142 19.1177 169.788 21.208 172.499 21.208C175.209 21.208 176.89 19.1177 176.89 16.1369ZM163.201 16.1369C163.201 10.7238 166.872 7.12651 172.499 7.12651C178.125 7.12651 181.796 10.7238 181.796 16.1369C181.796 21.5846 178.125 25.1479 172.499 25.1479C166.872 25.1479 163.201 21.5503 163.201 16.1369Z" fill="#00D474"/>
<path d="M186.016 7.33189L189.549 19.7345L192.877 7.33189H197.234L200.459 19.7689L204.061 7.33189H209.001L203.203 24.9421H198.057L194.97 14.3214L191.813 24.9421H186.667L180.904 7.33189H186.016Z" fill="#00D474"/>
<path d="M208.933 19.4262C210.579 19.4262 211.848 20.6253 211.848 22.3041C211.848 23.9486 210.579 25.1479 208.933 25.1479C207.252 25.1479 206.016 23.9486 206.016 22.3041C206.016 20.6253 207.252 19.4262 208.933 19.4262Z" fill="#00D474"/>
<path d="M225.537 16.1369C225.537 13.1564 223.856 11.0664 221.146 11.0664C218.435 11.0664 216.789 13.1564 216.789 16.1369C216.789 19.1177 218.435 21.208 221.146 21.208C223.856 21.208 225.537 19.1177 225.537 16.1369ZM211.848 16.1369C211.848 10.7238 215.519 7.12651 221.146 7.12651C226.772 7.12651 230.443 10.7238 230.443 16.1369C230.443 21.5846 226.772 25.1479 221.146 25.1479C215.519 25.1479 211.848 21.5503 211.848 16.1369Z" fill="#00D474"/>
<path d="M242.485 7.33189V11.7173H240.564C237.682 11.7173 236.584 13.636 236.584 16.3083V24.9421H231.747V7.33189H236.138L236.584 9.97009C237.545 8.39393 238.917 7.33189 241.661 7.33189H242.485Z" fill="#00D474"/>
<path d="M255.556 16.0343C255.556 13.0876 253.909 10.9978 251.267 10.9978C248.626 10.9978 246.945 13.0533 246.945 16.0003C246.945 18.9465 248.626 20.9679 251.267 20.9679C253.909 20.9679 255.556 18.9465 255.556 16.0343ZM260.324 7.33191V24.4285C260.324 28.7796 257.648 32 250.89 32C245.984 32 242.622 29.773 242.382 25.6961H247.254C247.7 27.375 249.037 28.3341 251.267 28.3341C253.978 28.3341 255.59 26.9978 255.59 24.2572V22.4068C254.424 23.8803 252.674 24.8394 250.204 24.8394C245.469 24.874 242.004 21.4132 242.004 15.966C242.004 10.5867 245.469 7.09201 250.169 7.09201C252.708 7.09201 254.492 8.22241 255.659 9.76451L256.07 7.33191H260.324Z" fill="#00D474"/>
</svg>
