<svg width="130" height="68" viewBox="0 0 130 68" fill="none" xmlns="http://www.w3.org/2000/svg">
<g filter="url(#filter0_d)">
<rect x="8" y="4" width="114" height="52" rx="26" fill="white"/>
<!-- <path d="M40.4023 20.9375H43.918V32.75C43.918 33.8359 43.6758 34.7969 43.1914 35.6328C42.7148 36.4609 42.0391 37.1016 41.1641 37.5547C40.2891 38.0078 39.3008 38.2344 38.1992 38.2344C36.3945 38.2344 34.9883 37.7773 33.9805 36.8633C32.9727 35.9414 32.4688 34.6406 32.4688 32.9609H36.0078C36.0078 33.7969 36.1836 34.4141 36.5352 34.8125C36.8867 35.2109 37.4414 35.4102 38.1992 35.4102C38.8711 35.4102 39.4062 35.1797 39.8047 34.7188C40.2031 34.2578 40.4023 33.6016 40.4023 32.75V20.9375ZM59.8438 20.9375V32.1758C59.8438 34.043 59.2578 35.5195 58.0859 36.6055C56.9219 37.6914 55.3281 38.2344 53.3047 38.2344C51.3125 38.2344 49.7305 37.707 48.5586 36.6523C47.3867 35.5977 46.7891 34.1484 46.7656 32.3047V20.9375H50.2812V32.1992C50.2812 33.3164 50.5469 34.1328 51.0781 34.6484C51.6172 35.1562 52.3594 35.4102 53.3047 35.4102C55.2812 35.4102 56.2852 34.3711 56.3164 32.293V20.9375H59.8438ZM76.6016 38H73.0859L66.2422 26.7734V38H62.7266V20.9375H66.2422L73.0977 32.1875V20.9375H76.6016V38ZM93.5117 38H90.125V24.9453L86.082 26.1992V23.4453L93.1484 20.9141H93.5117V38Z" fill="black"/> -->
</g>
<defs>
<filter id="filter0_d" x="0" y="0" width="130" height="68" filterUnits="userSpaceOnUse" color-interpolation-filters="sRGB">
<feFlood flood-opacity="0" result="BackgroundImageFix"/>
<feColorMatrix in="SourceAlpha" type="matrix" values="0 0 0 0 0 0 0 0 0 0 0 0 0 0 0 0 0 0 127 0"/>
<feOffset dy="4"/>
<feGaussianBlur stdDeviation="4"/>
<feColorMatrix type="matrix" values="0 0 0 0 0 0 0 0 0 0 0 0 0 0 0 0 0 0 0.12 0"/>
<feBlend mode="normal" in2="BackgroundImageFix" result="effect1_dropShadow"/>
<feBlend mode="normal" in="SourceGraphic" in2="effect1_dropShadow" result="shape"/>
</filter>
</defs>
</svg>
