<svg width="360" height="80" viewBox="0 0 360 80" fill="none" xmlns="http://www.w3.org/2000/svg">
<path d="M215.074 74H203.379V71.6797L208.898 65.7969C209.656 64.9688 210.215 64.2461 210.574 63.6289C210.941 63.0117 211.125 62.4258 211.125 61.8711C211.125 61.1133 210.934 60.5195 210.551 60.0898C210.168 59.6523 209.621 59.4336 208.91 59.4336C208.145 59.4336 207.539 59.6992 207.094 60.2305C206.656 60.7539 206.438 61.4453 206.438 62.3047H203.039C203.039 61.2656 203.285 60.3164 203.777 59.457C204.277 58.5977 204.98 57.9258 205.887 57.4414C206.793 56.9492 207.82 56.7031 208.969 56.7031C210.727 56.7031 212.09 57.125 213.059 57.9688C214.035 58.8125 214.523 60.0039 214.523 61.543C214.523 62.3867 214.305 63.2461 213.867 64.1211C213.43 64.9961 212.68 66.0156 211.617 67.1797L207.738 71.2695H215.074V74ZM217.664 65.6094L218.648 56.9375H228.211V59.7617H221.426L221.004 63.4297C221.809 63 222.664 62.7852 223.57 62.7852C225.195 62.7852 226.469 63.2891 227.391 64.2969C228.312 65.3047 228.773 66.7148 228.773 68.5273C228.773 69.6289 228.539 70.6172 228.07 71.4922C227.609 72.3594 226.945 73.0352 226.078 73.5195C225.211 73.9961 224.188 74.2344 223.008 74.2344C221.977 74.2344 221.02 74.0273 220.137 73.6133C219.254 73.1914 218.555 72.6016 218.039 71.8438C217.531 71.0859 217.262 70.2227 217.23 69.2539H220.582C220.652 69.9648 220.898 70.5195 221.32 70.918C221.75 71.3086 222.309 71.5039 222.996 71.5039C223.762 71.5039 224.352 71.2305 224.766 70.6836C225.18 70.1289 225.387 69.3477 225.387 68.3398C225.387 67.3711 225.148 66.6289 224.672 66.1133C224.195 65.5977 223.52 65.3398 222.645 65.3398C221.84 65.3398 221.188 65.5508 220.688 65.9727L220.359 66.2773L217.664 65.6094Z" fill="white"/>
<path d="M286.992 58.5195L280.172 74H277.184L283.992 59.2227H275.168V56.9375H286.992V58.5195ZM290.039 65.5391L290.965 56.9375H300.129V59.3984H293.332L292.863 63.4766C293.652 63.0234 294.543 62.7969 295.535 62.7969C297.16 62.7969 298.422 63.3164 299.32 64.3555C300.227 65.3945 300.68 66.793 300.68 68.5508C300.68 70.2852 300.18 71.668 299.18 72.6992C298.18 73.7227 296.809 74.2344 295.066 74.2344C293.504 74.2344 292.207 73.793 291.176 72.9102C290.152 72.0195 289.598 70.8477 289.512 69.3945H292.266C292.375 70.2227 292.672 70.8594 293.156 71.3047C293.641 71.7422 294.273 71.9609 295.055 71.9609C295.93 71.9609 296.609 71.6484 297.094 71.0234C297.586 70.3984 297.832 69.5469 297.832 68.4688C297.832 67.4297 297.562 66.6094 297.023 66.0078C296.484 65.3984 295.742 65.0938 294.797 65.0938C294.281 65.0938 293.844 65.1641 293.484 65.3047C293.125 65.4375 292.734 65.7031 292.312 66.1016L290.039 65.5391Z" fill="white"/>
<path d="M139.605 74H136.219V60.9453L132.176 62.1992V59.4453L139.242 56.9141H139.605V74ZM156.645 66.9453C156.645 69.3047 156.156 71.1094 155.18 72.3594C154.203 73.6094 152.773 74.2344 150.891 74.2344C149.031 74.2344 147.609 73.6211 146.625 72.3945C145.641 71.168 145.137 69.4102 145.113 67.1211V63.9805C145.113 61.5977 145.605 59.7891 146.59 58.5547C147.582 57.3203 149.008 56.7031 150.867 56.7031C152.727 56.7031 154.148 57.3164 155.133 58.543C156.117 59.7617 156.621 61.5156 156.645 63.8047V66.9453ZM153.258 63.5C153.258 62.0859 153.062 61.0586 152.672 60.418C152.289 59.7695 151.688 59.4453 150.867 59.4453C150.07 59.4453 149.48 59.7539 149.098 60.3711C148.723 60.9805 148.523 61.9375 148.5 63.2422V67.3906C148.5 68.7812 148.688 69.8164 149.062 70.4961C149.445 71.168 150.055 71.5039 150.891 71.5039C151.719 71.5039 152.316 71.1797 152.684 70.5312C153.051 69.8828 153.242 68.8906 153.258 67.5547V63.5Z" fill="white"/>
<path d="M74.4961 74H71.1094V60.9453L67.0664 62.1992V59.4453L74.1328 56.9141H74.4961V74Z" fill="white"/>
<path d="M344 32C352.837 32 360 24.8366 360 16C360 7.16344 352.837 0 344 0L288 0V32L344 32Z" fill="#790019"/>
<rect width="32" height="72" transform="matrix(0 -1 -1 0 288 32)" fill="#D9002C"/>
<rect width="32" height="72" transform="matrix(0 -1 -1 0 216 32)" fill="#FF9500"/>
<rect width="32" height="72" transform="matrix(0 -1 -1 0 144 32)" fill="#FFC900"/>
<path d="M72 32V0L16 0C7.16344 0 0 7.16344 0 16C0 24.8366 7.16344 32 16 32L72 32Z" fill="#00D474"/>
</svg>
