<svg width="78" height="360" viewBox="0 0 78 360" fill="none" xmlns="http://www.w3.org/2000/svg">
<path d="M62.6328 62.5195L55.8125 78H52.8242L59.6328 63.2227H50.8086V60.9375H62.6328V62.5195ZM65.6797 69.5391L66.6055 60.9375H75.7695V63.3984H68.9727L68.5039 67.4766C69.293 67.0234 70.1836 66.7969 71.1758 66.7969C72.8008 66.7969 74.0625 67.3164 74.9609 68.3555C75.8672 69.3945 76.3203 70.793 76.3203 72.5508C76.3203 74.2852 75.8203 75.668 74.8203 76.6992C73.8203 77.7227 72.4492 78.2344 70.707 78.2344C69.1445 78.2344 67.8477 77.793 66.8164 76.9102C65.793 76.0195 65.2383 74.8477 65.1523 73.3945H67.9062C68.0156 74.2227 68.3125 74.8594 68.7969 75.3047C69.2812 75.7422 69.9141 75.9609 70.6953 75.9609C71.5703 75.9609 72.25 75.6484 72.7344 75.0234C73.2266 74.3984 73.4727 73.5469 73.4727 72.4688C73.4727 71.4297 73.2031 70.6094 72.6641 70.0078C72.125 69.3984 71.3828 69.0938 70.4375 69.0938C69.9219 69.0938 69.4844 69.1641 69.125 69.3047C68.7656 69.4375 68.375 69.7031 67.9531 70.1016L65.6797 69.5391Z" fill="white"/>
<path d="M62.8555 150H51.1602V147.68L56.6797 141.797C57.4375 140.969 57.9961 140.246 58.3555 139.629C58.7227 139.012 58.9062 138.426 58.9062 137.871C58.9062 137.113 58.7148 136.52 58.332 136.09C57.9492 135.652 57.4023 135.434 56.6914 135.434C55.9258 135.434 55.3203 135.699 54.875 136.23C54.4375 136.754 54.2188 137.445 54.2188 138.305H50.8203C50.8203 137.266 51.0664 136.316 51.5586 135.457C52.0586 134.598 52.7617 133.926 53.668 133.441C54.5742 132.949 55.6016 132.703 56.75 132.703C58.5078 132.703 59.8711 133.125 60.8398 133.969C61.8164 134.812 62.3047 136.004 62.3047 137.543C62.3047 138.387 62.0859 139.246 61.6484 140.121C61.2109 140.996 60.4609 142.016 59.3984 143.18L55.5195 147.27H62.8555V150ZM65.4453 141.609L66.4297 132.938H75.9922V135.762H69.207L68.7852 139.43C69.5898 139 70.4453 138.785 71.3516 138.785C72.9766 138.785 74.25 139.289 75.1719 140.297C76.0938 141.305 76.5547 142.715 76.5547 144.527C76.5547 145.629 76.3203 146.617 75.8516 147.492C75.3906 148.359 74.7266 149.035 73.8594 149.52C72.9922 149.996 71.9688 150.234 70.7891 150.234C69.7578 150.234 68.8008 150.027 67.918 149.613C67.0352 149.191 66.3359 148.602 65.8203 147.844C65.3125 147.086 65.043 146.223 65.0117 145.254H68.3633C68.4336 145.965 68.6797 146.52 69.1016 146.918C69.5312 147.309 70.0898 147.504 70.7773 147.504C71.543 147.504 72.1328 147.23 72.5469 146.684C72.9609 146.129 73.168 145.348 73.168 144.34C73.168 143.371 72.9297 142.629 72.4531 142.113C71.9766 141.598 71.3008 141.34 70.4258 141.34C69.6211 141.34 68.9688 141.551 68.4688 141.973L68.1406 142.277L65.4453 141.609Z" fill="white"/>
<path d="M59.3867 222H56V208.945L51.957 210.199V207.445L59.0234 204.914H59.3867V222ZM76.4258 214.945C76.4258 217.305 75.9375 219.109 74.9609 220.359C73.9844 221.609 72.5547 222.234 70.6719 222.234C68.8125 222.234 67.3906 221.621 66.4062 220.395C65.4219 219.168 64.918 217.41 64.8945 215.121V211.98C64.8945 209.598 65.3867 207.789 66.3711 206.555C67.3633 205.32 68.7891 204.703 70.6484 204.703C72.5078 204.703 73.9297 205.316 74.9141 206.543C75.8984 207.762 76.4023 209.516 76.4258 211.805V214.945ZM73.0391 211.5C73.0391 210.086 72.8438 209.059 72.4531 208.418C72.0703 207.77 71.4688 207.445 70.6484 207.445C69.8516 207.445 69.2617 207.754 68.8789 208.371C68.5039 208.98 68.3047 209.938 68.2812 211.242V215.391C68.2812 216.781 68.4688 217.816 68.8438 218.496C69.2266 219.168 69.8359 219.504 70.6719 219.504C71.5 219.504 72.0977 219.18 72.4648 218.531C72.832 217.883 73.0234 216.891 73.0391 215.555V211.5Z" fill="white"/>
<path d="M59.3867 294H56V280.945L51.957 282.199V279.445L59.0234 276.914H59.3867V294Z" fill="white"/>
<path d="M32 16C32 7.16344 24.8366 0 16 0V0C7.16344 0 0 7.16344 0 16V72H32V16Z" fill="#790019"/>
<rect width="32" height="72" transform="matrix(-1 0 0 1 32 72)" fill="#D9002C"/>
<rect width="32" height="72" transform="matrix(-1 0 0 1 32 144)" fill="#FF9500"/>
<rect width="32" height="72" transform="matrix(-1 0 0 1 32 216)" fill="#FFC900"/>
<path d="M32 288H0V344C0 352.837 7.16344 360 16 360C24.8366 360 32 352.837 32 344V288Z" fill="#00D474"/>
</svg>
